<mxfile host="65bd71144e">
    <diagram id="PnY9nsG2CH0tk8q1LWO9" name="第 1 页">
        <mxGraphModel dx="498" dy="745" grid="1" gridSize="10" guides="1" tooltips="1" connect="1" arrows="1" fold="1" page="1" pageScale="1" pageWidth="827" pageHeight="1169" math="0" shadow="0">
            <root>
                <mxCell id="0"/>
                <mxCell id="1" parent="0"/>
                <mxCell id="6" value="4 Bytes" style="text;html=1;strokeColor=none;fillColor=none;align=center;verticalAlign=middle;whiteSpace=wrap;rounded=0;" parent="1" vertex="1">
                    <mxGeometry x="60" y="330" width="60" height="30" as="geometry"/>
                </mxCell>
                <mxCell id="7" value="4 Bytes" style="text;html=1;strokeColor=none;fillColor=none;align=center;verticalAlign=middle;whiteSpace=wrap;rounded=0;" parent="1" vertex="1">
                    <mxGeometry x="260" y="330" width="60" height="30" as="geometry"/>
                </mxCell>
                <mxCell id="8" value="6 Bytes" style="text;html=1;strokeColor=none;fillColor=none;align=center;verticalAlign=middle;whiteSpace=wrap;rounded=0;" parent="1" vertex="1">
                    <mxGeometry x="460" y="330" width="60" height="30" as="geometry"/>
                </mxCell>
                <mxCell id="9" value="5&lt;br&gt;(长度)" style="rounded=0;whiteSpace=wrap;html=1;fillColor=none;" parent="1" vertex="1">
                    <mxGeometry x="370" y="400" width="40" height="40" as="geometry"/>
                </mxCell>
                <mxCell id="10" value="&quot;Betty&quot; (字符串内容)" style="rounded=0;whiteSpace=wrap;html=1;fillColor=none;" parent="1" vertex="1">
                    <mxGeometry x="410" y="400" width="200" height="40" as="geometry"/>
                </mxCell>
                <mxCell id="11" value="5 Bytes" style="text;html=1;strokeColor=none;fillColor=none;align=center;verticalAlign=middle;whiteSpace=wrap;rounded=0;" parent="1" vertex="1">
                    <mxGeometry x="480" y="450" width="60" height="30" as="geometry"/>
                </mxCell>
                <mxCell id="12" value="1 Byte" style="text;html=1;strokeColor=none;fillColor=none;align=center;verticalAlign=middle;whiteSpace=wrap;rounded=0;" parent="1" vertex="1">
                    <mxGeometry x="360" y="450" width="60" height="30" as="geometry"/>
                </mxCell>
                <mxCell id="13" value="person.name" style="rounded=0;whiteSpace=wrap;html=1;fillColor=none;" parent="1" vertex="1">
                    <mxGeometry x="370" y="360" width="240" height="40" as="geometry"/>
                </mxCell>
                <mxCell id="15" value="0xc4 0xaf 0xa0 0x11" style="rounded=0;whiteSpace=wrap;html=1;fillColor=none;" parent="1" vertex="1">
                    <mxGeometry x="10" y="400" width="160" height="40" as="geometry"/>
                </mxCell>
                <mxCell id="16" value="类型哈希" style="rounded=0;whiteSpace=wrap;html=1;fillColor=none;" parent="1" vertex="1">
                    <mxGeometry x="10" y="360" width="160" height="40" as="geometry"/>
                </mxCell>
                <mxCell id="17" value="0x18 0x00 0x00 0x00" style="rounded=0;whiteSpace=wrap;html=1;fillColor=none;" parent="1" vertex="1">
                    <mxGeometry x="210" y="400" width="160" height="40" as="geometry"/>
                </mxCell>
                <mxCell id="18" value="person.age" style="rounded=0;whiteSpace=wrap;html=1;fillColor=none;" parent="1" vertex="1">
                    <mxGeometry x="210" y="360" width="160" height="40" as="geometry"/>
                </mxCell>
                <mxCell id="19" value="0x01" style="rounded=0;whiteSpace=wrap;html=1;fillColor=none;" parent="1" vertex="1">
                    <mxGeometry x="170" y="400" width="40" height="40" as="geometry"/>
                </mxCell>
                <mxCell id="20" value="元信息头" style="rounded=0;whiteSpace=wrap;html=1;fillColor=none;" parent="1" vertex="1">
                    <mxGeometry x="170" y="360" width="40" height="40" as="geometry"/>
                </mxCell>
                <mxCell id="21" value="1 Byte" style="text;html=1;strokeColor=none;fillColor=none;align=center;verticalAlign=middle;whiteSpace=wrap;rounded=0;" parent="1" vertex="1">
                    <mxGeometry x="160" y="330" width="60" height="30" as="geometry"/>
                </mxCell>
                <mxCell id="22" value="person.salary" style="rounded=0;whiteSpace=wrap;html=1;fillColor=none;" parent="1" vertex="1">
                    <mxGeometry x="610" y="360" width="200" height="40" as="geometry"/>
                </mxCell>
                <mxCell id="23" value="9 Bytes" style="text;html=1;strokeColor=none;fillColor=none;align=center;verticalAlign=middle;whiteSpace=wrap;rounded=0;" parent="1" vertex="1">
                    <mxGeometry x="680" y="330" width="60" height="30" as="geometry"/>
                </mxCell>
                <mxCell id="24" value="2000.0(IEEE-754编码)" style="rounded=0;whiteSpace=wrap;html=1;fillColor=none;" parent="1" vertex="1">
                    <mxGeometry x="650" y="400" width="160" height="40" as="geometry"/>
                </mxCell>
                <mxCell id="25" value="true&lt;br&gt;(有值)" style="rounded=0;whiteSpace=wrap;html=1;fillColor=none;" parent="1" vertex="1">
                    <mxGeometry x="610" y="400" width="40" height="40" as="geometry"/>
                </mxCell>
                <mxCell id="28" value="8 Bytes" style="text;html=1;strokeColor=none;fillColor=none;align=center;verticalAlign=middle;whiteSpace=wrap;rounded=0;" parent="1" vertex="1">
                    <mxGeometry x="700" y="450" width="60" height="30" as="geometry"/>
                </mxCell>
                <mxCell id="29" value="1 Byte" style="text;html=1;strokeColor=none;fillColor=none;align=center;verticalAlign=middle;whiteSpace=wrap;rounded=0;" parent="1" vertex="1">
                    <mxGeometry x="600" y="450" width="60" height="30" as="geometry"/>
                </mxCell>
            </root>
        </mxGraphModel>
    </diagram>
</mxfile>